<svg width="14" height="14" viewBox="0 0 14 14" fill="none" xmlns="http://www.w3.org/2000/svg">
<path fill-rule="evenodd" clip-rule="evenodd" d="M7.00008 1.6665C4.05456 1.6665 1.66675 4.05432 1.66675 6.99984C1.66675 9.94536 4.05456 12.3332 7.00008 12.3332C9.9456 12.3332 12.3334 9.94536 12.3334 6.99984C12.3334 4.05432 9.9456 1.6665 7.00008 1.6665ZM0.666748 6.99984C0.666748 3.50203 3.50228 0.666504 7.00008 0.666504C10.4979 0.666504 13.3334 3.50203 13.3334 6.99984C13.3334 10.4976 10.4979 13.3332 7.00008 13.3332C3.50228 13.3332 0.666748 10.4976 0.666748 6.99984ZM7.00008 3.87484C7.27622 3.87484 7.50008 4.0987 7.50008 4.37484V6.49984H9.62508C9.90122 6.49984 10.1251 6.7237 10.1251 6.99984C10.1251 7.27598 9.90122 7.49984 9.62508 7.49984H7.50008V9.62484C7.50008 9.90098 7.27622 10.1248 7.00008 10.1248C6.72394 10.1248 6.50008 9.90098 6.50008 9.62484V7.49984H4.37508C4.09894 7.49984 3.87508 7.27598 3.87508 6.99984C3.87508 6.7237 4.09894 6.49984 4.37508 6.49984H6.50008V4.37484C6.50008 4.0987 6.72394 3.87484 7.00008 3.87484Z" fill="black" fill-opacity="0.4"/>
</svg>
