<svg width="16" height="16" viewBox="0 0 16 16" xmlns="http://www.w3.org/2000/svg">
<path d="M13.3333 1.33325L11.6667 2.66659H15L13.3333 1.33325Z" fill-opacity="0.8"/>
<path d="M1.66667 1.49992C1.02233 1.49992 0.5 2.02225 0.5 2.66659V13.3333C0.5 13.9776 1.02233 14.4999 1.66667 14.4999H3.66667C4.311 14.4999 4.83333 13.9776 4.83333 13.3333V2.66659C4.83333 2.02225 4.311 1.49992 3.66667 1.49992H1.66667ZM1.5 2.66659C1.5 2.57454 1.57462 2.49992 1.66667 2.49992H3.66667C3.75871 2.49992 3.83333 2.57454 3.83333 2.66659V13.3333C3.83333 13.4253 3.75871 13.4999 3.66667 13.4999H1.66667C1.57462 13.4999 1.5 13.4253 1.5 13.3333V2.66659Z" fill-opacity="0.8"/>
<path d="M7 1.49992C6.35567 1.49992 5.83333 2.02225 5.83333 2.66659V13.3333C5.83333 13.9776 6.35567 14.4999 7 14.4999H9C9.64433 14.4999 10.1667 13.9776 10.1667 13.3333V2.66659C10.1667 2.02225 9.64433 1.49992 9 1.49992H7ZM6.83333 2.66659C6.83333 2.57454 6.90795 2.49992 7 2.49992H9C9.09205 2.49992 9.16667 2.57454 9.16667 2.66659V13.3333C9.16667 13.4253 9.09205 13.4999 9 13.4999H7C6.90795 13.4999 6.83333 13.4253 6.83333 13.3333V2.66659Z" fill-opacity="0.8"/>
<path d="M11.1667 4.66659C11.1667 4.02225 11.689 3.49992 12.3333 3.49992H14.3333C14.9777 3.49992 15.5 4.02225 15.5 4.66659V13.9999C15.5 14.6443 14.9777 15.1666 14.3333 15.1666H12.3333C11.689 15.1666 11.1667 14.6443 11.1667 13.9999V4.66659ZM12.3333 4.49992C12.2413 4.49992 12.1667 4.57454 12.1667 4.66659V13.9999C12.1667 14.092 12.2413 14.1666 12.3333 14.1666H14.3333C14.4254 14.1666 14.5 14.092 14.5 13.9999V4.66659C14.5 4.57454 14.4254 4.49992 14.3333 4.49992H12.3333Z" fill-opacity="0.8"/>
</svg>
