<svg width="16" height="16" viewBox="0 0 16 16" fill="none" xmlns="http://www.w3.org/2000/svg">
<rect x="0.5" y="0.5" width="15" height="15" rx="7.5" stroke="#2B67FF"/>
<path d="M8.66602 5.33317C8.66602 4.96498 8.36754 4.6665 7.99935 4.6665C7.63116 4.6665 7.33268 4.96498 7.33268 5.33317V7.33317H5.33268C4.96449 7.33317 4.66602 7.63165 4.66602 7.99984C4.66602 8.36803 4.96449 8.6665 5.33268 8.6665H7.33268V10.6665C7.33268 11.0347 7.63116 11.3332 7.99935 11.3332C8.36754 11.3332 8.66602 11.0347 8.66602 10.6665V8.6665H10.666C11.0342 8.6665 11.3327 8.36803 11.3327 7.99984C11.3327 7.63165 11.0342 7.33317 10.666 7.33317H8.66602V5.33317Z" fill="#2B67FF"/>
</svg>
