<svg width="16" height="16" viewBox="0 0 16 16" xmlns="http://www.w3.org/2000/svg">
<g opacity="0.6">
<path fill-rule="evenodd" clip-rule="evenodd" d="M9.26657 4.66666C9.26657 3.52527 10.1918 2.59999 11.3332 2.59999C12.4746 2.59999 13.3999 3.52527 13.3999 4.66666C13.3999 5.80805 12.4746 6.73333 11.3332 6.73333C10.1918 6.73333 9.26657 5.80805 9.26657 4.66666ZM11.3332 1.39999C9.52911 1.39999 8.06657 2.86253 8.06657 4.66666C8.06657 6.47079 9.52911 7.93333 11.3332 7.93333C13.1374 7.93333 14.5999 6.47079 14.5999 4.66666C14.5999 2.86253 13.1374 1.39999 11.3332 1.39999ZM6.66657 2.93333H2.5999V6.39999H6.66657C6.99794 6.39999 7.26657 6.66862 7.26657 6.99999C7.26657 7.33136 6.99794 7.59999 6.66657 7.59999H2.33324C1.81777 7.59999 1.3999 7.18213 1.3999 6.66666V2.66666C1.3999 2.1512 1.81777 1.73333 2.33324 1.73333H6.66657C6.99794 1.73333 7.26657 2.00196 7.26657 2.33333C7.26657 2.6647 6.99794 2.93333 6.66657 2.93333ZM2.33324 8.73333C1.81777 8.73333 1.3999 9.1512 1.3999 9.66666V13.6667C1.3999 14.1821 1.81777 14.6 2.33324 14.6H13.6666C14.182 14.6 14.5999 14.1821 14.5999 13.6667V9.66666C14.5999 9.1512 14.182 8.73333 13.6666 8.73333H2.33324ZM2.5999 13.4V9.93333H13.3999V13.4H2.5999ZM11.3333 5.66666C11.8856 5.66666 12.3333 5.21895 12.3333 4.66666C12.3333 4.11438 11.8856 3.66666 11.3333 3.66666C10.781 3.66666 10.3333 4.11438 10.3333 4.66666C10.3333 5.21895 10.781 5.66666 11.3333 5.66666Z"/>
</g>
</svg>
