<svg width="18" height="18" viewBox="0 0 18 18" fill="none" xmlns="http://www.w3.org/2000/svg">
<path d="M14.5588 3.86842C14.5588 2.56038 13.4922 1.5 12.1765 1.5H5.82353C4.50779 1.5 3.44118 2.56038 3.44118 3.86842M4.63235 16.5H13.3676C14.6834 16.5 15.75 15.4396 15.75 14.1316V6.23684C15.75 4.9288 14.6834 3.86842 13.3676 3.86842H4.63235C3.31662 3.86842 2.25 4.9288 2.25 6.23684V14.1316C2.25 15.4396 3.31662 16.5 4.63235 16.5Z" stroke="#2B67FF" stroke-width="1.2" stroke-linecap="round"/>
<path d="M4.125 12.1872L5.46207 7.875H6.70074L8.03781 12.1872H6.94963L6.70074 11.1974H5.42734L5.17845 12.1872H4.125ZM5.62414 10.3986H6.50394L6.41133 10.034C6.29557 9.60566 6.18559 9.09051 6.06983 8.65061H6.04668C5.94249 9.10209 5.82673 9.60566 5.71675 10.034L5.62414 10.3986Z" fill="#2B67FF"/>
<path d="M8.49019 12.1872V7.875H10.0067C10.9502 7.875 11.7316 8.2165 11.7316 9.28152C11.7316 10.306 10.9444 10.7575 10.0298 10.7575H9.52628V12.1872H8.49019ZM9.52628 9.94137H9.97776C10.4813 9.94137 10.7244 9.70406 10.7244 9.28152C10.7244 8.84741 10.4466 8.69692 9.94882 8.69692H9.52628V9.94137Z" fill="#2B67FF"/>
<path d="M12.4639 12.1872V7.875H13.5V12.1872H12.4639Z" fill="#2B67FF"/>
</svg>
