<svg width="18" height="18" viewBox="0 0 18 18" xmlns="http://www.w3.org/2000/svg">
<g clip-path="url(#clip0_4920_11559)">
<path d="M4.50015 3.1875C4.74855 3.1875 4.96755 3.35044 5.03893 3.58837L8.41393 14.8384C8.50319 15.1359 8.33434 15.4495 8.03678 15.5388C7.73922 15.628 7.42564 15.4592 7.33637 15.1616L5.99413 10.6875H3.00617L1.66393 15.1616C1.57466 15.4592 1.26107 15.628 0.963515 15.5388C0.665956 15.4495 0.497103 15.1359 0.586371 14.8384L3.96137 3.58837C4.03275 3.35044 4.25174 3.1875 4.50015 3.1875ZM4.50015 5.70756L3.34367 9.5625H5.65663L4.50015 5.70756Z" />
<path d="M9.93764 15.5625V9.5625H12.3751C14.1355 9.5625 15.5626 8.13541 15.5626 6.375C15.5626 4.61459 14.1355 3.1875 12.3751 3.1875H8.81264V15.5625H9.93764ZM12.3751 8.4375H9.93764V4.3125H12.3751C13.5142 4.3125 14.4376 5.23591 14.4376 6.375C14.4376 7.51409 13.5142 8.4375 12.3751 8.4375Z"/>
<path d="M17.4376 3.75C17.4376 3.43934 17.1858 3.1875 16.8751 3.1875C16.5645 3.1875 16.3126 3.43934 16.3126 3.75V15C16.3126 15.3107 16.5645 15.5625 16.8751 15.5625C17.1858 15.5625 17.4376 15.3107 17.4376 15V3.75Z"/>
</g>
<defs>
<clipPath id="clip0_4920_11559">
<rect width="18" height="18"/>
</clipPath>
</defs>
</svg>

