<svg width="12" height="12" viewBox="0 0 12 12" fill="none" xmlns="http://www.w3.org/2000/svg">
<path d="M1.25 6.25V10C1.25 10.2761 1.47386 10.5 1.75 10.5H10.25C10.5261 10.5 10.75 10.2761 10.75 10V6.25M1.25 6.25L5.87873 7.46968C5.95835 7.48959 6.04165 7.48959 6.12127 7.46968L10.75 6.25M1.25 6.25V4C1.25 3.72386 1.47386 3.5 1.75 3.5H10.25C10.5261 3.5 10.75 3.72386 10.75 4V6.25M8.75 3.5V3C8.75 2.17157 8.07843 1.5 7.25 1.5H5C4.17157 1.5 3.5 2.17157 3.5 3V3.5H8.75Z" stroke="white" stroke-opacity="0.9" stroke-linecap="round" stroke-linejoin="round"/>
<path d="M6.625 5.5C6.625 5.84518 6.34518 6.125 6 6.125C5.65482 6.125 5.375 5.84518 5.375 5.5C5.375 5.15482 5.65482 4.875 6 4.875C6.34518 4.875 6.625 5.15482 6.625 5.5Z" fill="white" fill-opacity="0.9"/>
</svg>
