<svg width="16" height="16" viewBox="0 0 16 16" xmlns="http://www.w3.org/2000/svg">
<path fill-rule="evenodd" clip-rule="evenodd" d="M3.01957 2.81313C2.82431 2.61787 2.50772 2.61787 2.31246 2.81313C2.1172 3.0084 2.1172 3.32498 2.31246 3.52024L7.29224 8.50002L2.31246 13.4798C2.1172 13.6751 2.1172 13.9916 2.31246 14.1869C2.50772 14.3822 2.82431 14.3822 3.01957 14.1869L7.99935 9.20713L12.9791 14.1869C13.1744 14.3822 13.491 14.3822 13.6862 14.1869C13.8815 13.9916 13.8815 13.6751 13.6862 13.4798L8.70646 8.50002L13.6862 3.52024C13.8815 3.32498 13.8815 3.0084 13.6862 2.81313C13.491 2.61787 13.1744 2.61787 12.9791 2.81313L7.99935 7.79291L3.01957 2.81313Z" fill-opacity="0.6"/>
</svg>
