<svg width="16" height="16" viewBox="0 0 16 16" xmlns="http://www.w3.org/2000/svg">
<path d="M3 2.5C2.72386 2.5 2.5 2.72386 2.5 3V13C2.5 13.2761 2.72386 13.5 3 13.5H7.01347C7.15345 13.855 7.33288 14.1901 7.54637 14.5H3C2.17157 14.5 1.5 13.8284 1.5 13V3C1.5 2.17157 2.17157 1.5 3 1.5H13C13.8284 1.5 14.5 2.17157 14.5 3V7.54637C14.1901 7.33288 13.855 7.15345 13.5 7.01347V3C13.5 2.72386 13.2761 2.5 13 2.5H3Z"  fill-opacity="0.8"/>
<path d="M7.5 8.90184C7.77681 8.48551 8.11436 8.11304 8.5 7.79708V6C8.5 5.94156 8.48997 5.88546 8.47155 5.83333H10.1667V6.33333C10.1667 6.55017 10.3047 6.73477 10.4977 6.80406C10.6601 6.76516 10.8256 6.73419 10.9937 6.71157C11.0996 6.61989 11.1667 6.48444 11.1667 6.33333V5.33333C11.1667 5.05719 10.9428 4.83333 10.6667 4.83333H5.33333C5.05719 4.83333 4.83333 5.05719 4.83333 5.33333V6.33333C4.83333 6.60948 5.05719 6.83333 5.33333 6.83333C5.60948 6.83333 5.83333 6.60948 5.83333 6.33333V5.83333H7.52845C7.51003 5.88546 7.5 5.94156 7.5 6V8.90184Z"  fill-opacity="0.8"/>
<path d="M9.90279 11.6667C9.90279 12.6408 10.6925 13.4306 11.6667 13.4306C12.6409 13.4306 13.4306 12.6408 13.4306 11.6667C13.4306 10.6925 12.6409 9.90278 11.6667 9.90278C10.6925 9.90278 9.90279 10.6925 9.90279 11.6667ZM11.6667 10.9028C12.0886 10.9028 12.4306 11.2448 12.4306 11.6667C12.4306 12.0886 12.0886 12.4306 11.6667 12.4306C11.2448 12.4306 10.9028 12.0886 10.9028 11.6667C10.9028 11.2448 11.2448 10.9028 11.6667 10.9028Z"  fill-opacity="0.8"/>
<path d="M10.5677 7.70424C10.7966 7.64087 11.0385 7.74731 11.1464 7.9589C11.2435 8.14923 11.4405 8.2778 11.6667 8.2778C11.8928 8.2778 12.0898 8.14923 12.1869 7.9589C12.2948 7.74731 12.5367 7.64087 12.7656 7.70424C13.4102 7.88266 13.9905 8.21372 14.4655 8.65538C14.6272 8.80579 14.6711 9.04452 14.5735 9.24264C14.5355 9.31971 14.5139 9.40664 14.5139 9.50002C14.5139 9.82218 14.775 10.0834 15.0972 10.0834L15.1053 10.0833C15.3263 10.0801 15.5232 10.2225 15.5894 10.4334C15.7119 10.8234 15.7778 11.2378 15.7778 11.6667C15.7778 11.9497 15.7491 12.2266 15.6943 12.4944C15.643 12.7452 15.4104 12.9168 15.1556 12.8918C15.1364 12.8899 15.1169 12.8889 15.0972 12.8889C14.775 12.8889 14.5139 13.1501 14.5139 13.4722C14.5139 13.6159 14.5652 13.7463 14.651 13.848C14.8161 14.0437 14.8067 14.3326 14.6291 14.5171C14.1441 15.0211 13.5311 15.402 12.8414 15.6074C12.5805 15.685 12.3054 15.5397 12.2225 15.2804C12.1471 15.0447 11.9261 14.875 11.6667 14.875C11.4073 14.875 11.1862 15.0447 11.1108 15.2804C11.0279 15.5397 10.7528 15.685 10.4919 15.6074C9.80224 15.402 9.18919 15.0211 8.7042 14.5171C8.52661 14.3326 8.51717 14.0437 8.68232 13.848C8.76815 13.7463 8.81943 13.6159 8.81943 13.4722C8.81943 13.1501 8.55826 12.8889 8.2361 12.8889C8.21638 12.8889 8.19692 12.8899 8.17774 12.8918C7.92288 12.9168 7.6903 12.7452 7.63899 12.4944C7.58422 12.2266 7.55554 11.9497 7.55554 11.6667C7.55554 11.2378 7.62139 10.8234 7.74387 10.4334C7.81012 10.2225 8.00699 10.0801 8.22803 10.0833L8.2361 10.0834C8.55826 10.0834 8.81943 9.82218 8.81943 9.50002C8.81943 9.40664 8.79785 9.31972 8.75985 9.24264C8.66218 9.04452 8.70608 8.80579 8.86784 8.65538C9.34283 8.21372 9.92315 7.88266 10.5677 7.70424ZM9.78827 9.18638C9.80872 9.28794 9.81943 9.39285 9.81943 9.50002C9.81943 10.2423 9.30859 10.8653 8.61927 11.0367C8.57752 11.2398 8.55554 11.4505 8.55554 11.6667C8.55554 11.7532 8.55906 11.8388 8.56595 11.9233C9.28208 12.0751 9.81943 12.7109 9.81943 13.4722C9.81943 13.6862 9.77678 13.8907 9.69961 14.0772C9.91163 14.2504 10.1467 14.3962 10.3995 14.509C10.6881 14.1243 11.1479 13.875 11.6667 13.875C12.1854 13.875 12.6452 14.1243 12.9338 14.509C13.1866 14.3962 13.4217 14.2504 13.6337 14.0772C13.5565 13.8907 13.5139 13.6862 13.5139 13.4722C13.5139 12.7109 14.0512 12.0751 14.7674 11.9233C14.7742 11.8388 14.7778 11.7532 14.7778 11.6667C14.7778 11.4505 14.7558 11.2398 14.714 11.0367C14.0247 10.8653 13.5139 10.2423 13.5139 9.50002C13.5139 9.39285 13.5246 9.28794 13.545 9.18638C13.3249 9.01935 13.082 8.88109 12.822 8.77702C12.5334 9.08484 12.1228 9.2778 11.6667 9.2778C11.2105 9.2778 10.7999 9.08484 10.5113 8.77702C10.2513 8.88109 10.0084 9.01935 9.78827 9.18638Z" fill-opacity="0.8"/>
</svg>
