<svg width="18" height="18" viewBox="0 0 18 18" xmlns="http://www.w3.org/2000/svg">
<path fill-rule="evenodd" clip-rule="evenodd" d="M3.93789 2.125C3.70037 2.125 3.49564 2.2921 3.44804 2.5248L1.76291 10.7632C1.75739 10.7874 1.75361 10.8123 1.75174 10.8376C1.75056 10.8531 1.75011 10.8685 1.75036 10.8837V15.375C1.75036 15.6511 1.97422 15.875 2.25036 15.875H15.7504C16.0265 15.875 16.2504 15.6511 16.2504 15.375V10.8869C16.2509 10.8621 16.2497 10.8371 16.2464 10.8119C16.2445 10.7965 16.2418 10.7812 16.2385 10.7662L14.5528 2.5248C14.5052 2.2921 14.3004 2.125 14.0629 2.125H3.93789ZM15.1378 10.375L13.6548 3.125H4.34597L2.86302 10.375H5.93218C6.15376 10.375 6.34891 10.5208 6.41169 10.7333L6.91946 12.4519H11.0813L11.589 10.7333C11.6518 10.5208 11.847 10.375 12.0685 10.375H15.1378ZM2.75036 14.875V11.375H5.55854L6.06631 13.0936C6.12909 13.3061 6.32424 13.4519 6.54582 13.4519H11.4549C11.6765 13.4519 11.8716 13.3061 11.9344 13.0936L12.4422 11.375H15.2504V14.875H2.75036ZM6.62543 5.625C6.62543 5.34886 6.84929 5.125 7.12543 5.125H10.8754C11.1516 5.125 11.3754 5.34886 11.3754 5.625C11.3754 5.90114 11.1516 6.125 10.8754 6.125H7.12543C6.84929 6.125 6.62543 5.90114 6.62543 5.625ZM6.37543 7.75C6.09929 7.75 5.87543 7.97386 5.87543 8.25C5.87543 8.52614 6.09929 8.75 6.37543 8.75H11.6254C11.9016 8.75 12.1254 8.52614 12.1254 8.25C12.1254 7.97386 11.9016 7.75 11.6254 7.75H6.37543Z"/>
</svg>
