<svg width="18" height="18" viewBox="0 0 18 18" xmlns="http://www.w3.org/2000/svg">
<g clip-path="url(#clip0_4920_17569)">
<path d="M0.9375 2.4375H4.5C6.46751 2.4375 8.0625 4.03249 8.0625 6V12C8.0625 13.9675 6.46751 15.5625 4.5 15.5625H0.9375V2.4375ZM2.0625 3.5625V14.4375H4.5C5.84619 14.4375 6.9375 13.3462 6.9375 12V6C6.9375 4.65381 5.84619 3.5625 4.5 3.5625H2.0625Z" />
<path d="M9.9375 2.4375H13.875C15.6354 2.4375 17.0625 3.86459 17.0625 5.625C17.0625 6.77053 16.4582 7.77492 15.551 8.3368C16.4653 8.98169 17.0625 10.0461 17.0625 11.25V12C17.0625 13.9675 15.4675 15.5625 13.5 15.5625H9.9375V2.4375ZM11.0625 7.6875H13.875C15.0141 7.6875 15.9375 6.76409 15.9375 5.625C15.9375 4.48591 15.0141 3.5625 13.875 3.5625H11.0625V7.6875ZM11.0625 8.8125V14.4375H13.5C14.8462 14.4375 15.9375 13.3462 15.9375 12V11.25C15.9375 9.90381 14.8462 8.8125 13.5 8.8125H11.0625Z" />
</g>
<defs>
<clipPath id="clip0_4920_17569">
<rect width="18" height="18" />
</clipPath>
</defs>
</svg>
