<svg width="16" height="16" viewBox="0 0 16 16" fill="none" xmlns="http://www.w3.org/2000/svg">
<path d="M0.666748 7.99999C0.666748 3.9499 3.94999 0.666656 8.00008 0.666656C12.0502 0.666656 15.3334 3.9499 15.3334 7.99999C15.3334 12.0501 12.0502 15.3333 8.00008 15.3333C3.94999 15.3333 0.666748 12.0501 0.666748 7.99999ZM10.3571 5.64297C10.0968 5.38262 9.67466 5.38262 9.41431 5.64297L8.00011 7.05716L6.58592 5.64297C6.32557 5.38262 5.90346 5.38262 5.64311 5.64297C5.38276 5.90332 5.38276 6.32543 5.64311 6.58578L7.0573 7.99997L5.64307 9.4142C5.38272 9.67455 5.38272 10.0967 5.64307 10.357C5.90342 10.6174 6.32553 10.6174 6.58588 10.357L8.00011 8.94278L9.41434 10.357C9.67469 10.6174 10.0968 10.6174 10.3572 10.357C10.6175 10.0967 10.6175 9.67455 10.3572 9.4142L8.94292 7.99997L10.3571 6.58578C10.6175 6.32543 10.6175 5.90332 10.3571 5.64297Z" fill="black" fill-opacity="0.2"/>
</svg>
