<svg xmlns="http://www.w3.org/2000/svg" width="16" height="16" viewBox="0 0 16 16" >
  <path d="M1.16602 2C1.16602 1.72386 1.38987 1.5 1.66602 1.5H6.33268C6.97702 1.5 7.49935 2.02233 7.49935 2.66667V6C7.49935 6.64433 6.97702 7.16667 6.33268 7.16667H1.66602C1.38987 7.16667 1.16602 6.94281 1.16602 6.66667C1.16602 6.39052 1.38987 6.16667 1.66602 6.16667H6.33268C6.42473 6.16667 6.49935 6.09205 6.49935 6V2.66667C6.49935 2.57462 6.42473 2.5 6.33268 2.5H1.66602C1.38987 2.5 1.16602 2.27614 1.16602 2ZM9.31246 1.97978C9.50772 1.78452 9.82431 1.78452 10.0196 1.97978L11.666 3.62623L13.3125 1.97978C13.5077 1.78452 13.8243 1.78452 14.0196 1.97978C14.2148 2.17504 14.2148 2.49162 14.0196 2.68689L12.3731 4.33333L14.0196 5.97978C14.2148 6.17504 14.2148 6.49162 14.0196 6.68689C13.8243 6.88215 13.5077 6.88215 13.3125 6.68689L11.666 5.04044L10.0196 6.68689C9.82431 6.88215 9.50772 6.88215 9.31246 6.68689C9.1172 6.49162 9.1172 6.17504 9.31246 5.97978L10.9589 4.33333L9.31246 2.68689C9.1172 2.49162 9.1172 2.17504 9.31246 1.97978ZM1.16602 10C1.16602 9.35567 1.68835 8.83333 2.33268 8.83333H12.9993C13.6437 8.83333 14.166 9.35567 14.166 10V13.3333C14.166 13.9777 13.6437 14.5 12.9993 14.5H2.33268C1.68835 14.5 1.16602 13.9777 1.16602 13.3333V10ZM2.33268 9.83333C2.24063 9.83333 2.16602 9.90795 2.16602 10V13.3333C2.16602 13.4254 2.24063 13.5 2.33268 13.5H12.9993C13.0914 13.5 13.166 13.4254 13.166 13.3333V10C13.166 9.90795 13.0914 9.83333 12.9993 9.83333H2.33268Z" fill-opacity="0.8"/>
</svg>