<svg width="12" height="12" viewBox="0 0 12 12" fill="none" xmlns="http://www.w3.org/2000/svg">
<path fill-rule="evenodd" clip-rule="evenodd" d="M5.53079 3.00487L1.48843 8.08787C1.38882 8.2128 1.35254 8.3747 1.38864 8.52906L1.72071 9.94211C1.74647 10.0517 1.84356 10.1264 1.95208 10.125L3.43621 10.1063L3.4368 10.1063C3.60297 10.1044 3.75656 10.0288 3.85715 9.90285L3.85799 9.90179L4.66227 8.89028L6.43516 6.66013C6.93917 6.026 7.44352 5.39133 7.87156 4.85243C7.83425 4.83883 7.79848 4.81902 7.76575 4.79284L5.53079 3.00487ZM5.99761 2.41786L8.23428 4.20719C8.26626 4.23278 8.29295 4.26254 8.31418 4.29507C8.51156 4.04645 8.67747 3.83734 8.79938 3.68351L8.9653 3.47386L9.00912 3.41821L9.01163 3.41499C9.23609 3.04042 9.11776 2.55474 8.73574 2.32257C8.72325 2.31497 8.69969 2.29766 8.69969 2.29766L8.24049 1.93899C8.01031 1.7592 7.77355 1.57422 7.75804 1.56193L7.75532 1.55978C7.40216 1.27465 6.88161 1.3257 6.59225 1.67014L5.99761 2.41786ZM9.14517 1.69395C9.86962 2.14883 10.095 3.09924 9.63846 3.82743C9.63476 3.83322 9.62957 3.84096 9.62761 3.84378L9.62304 3.85016L9.61853 3.85623L9.61282 3.86368L9.59945 3.88082L9.55398 3.93858L9.38719 4.14932C9.24444 4.32946 9.04159 4.58508 8.79879 4.89086C8.31316 5.50247 7.66742 6.31512 7.02229 7.12679L5.24933 9.35704L4.4443 10.3695L4.44376 10.3702C4.20168 10.6738 3.83527 10.8517 3.44566 10.8562L3.44507 10.8562L1.96158 10.8749C1.49884 10.8808 1.09623 10.5631 0.990608 10.1137L0.658482 8.70044C0.570112 8.32297 0.658542 7.92577 0.90159 7.62084L6.0081 1.19973L6.01337 1.19324C6.56501 0.530486 7.55297 0.434055 8.22468 0.974773L8.22757 0.97704L9.14517 1.69395ZM6.625 10.5C6.625 10.2929 6.79289 10.125 7 10.125H11C11.2071 10.125 11.375 10.2929 11.375 10.5C11.375 10.7071 11.2071 10.875 11 10.875H7C6.79289 10.875 6.625 10.7071 6.625 10.5Z" fill="#2B67FF"/>
</svg>
