<svg width="14" height="15" viewBox="0 0 14 15" fill="none" xmlns="http://www.w3.org/2000/svg">
<path d="M5.16186 11.6248L5.28911 12.1083L5.41983 12.0739L5.51542 11.9783L5.16186 11.6248ZM2.76299 9.22591L2.40944 8.87235L2.31385 8.96794L2.27945 9.09866L2.76299 9.22591ZM1.90625 12.4815L1.42271 12.3543C1.37746 12.5263 1.42695 12.7093 1.5527 12.8351C1.67844 12.9608 1.86152 13.0103 2.0335 12.9651L1.90625 12.4815ZM11.8444 4.2568L12.198 3.90325V3.90325L11.8444 4.2568ZM11.8444 4.9422L12.198 5.29575L11.8444 4.9422ZM10.131 2.54332L9.7774 2.89687L10.131 2.54332ZM9.44557 2.54332L9.79912 2.89687L9.44557 2.54332ZM8.15521 3.83345C7.95994 3.63818 7.64336 3.63818 7.4481 3.83345C7.25284 4.02871 7.25284 4.34529 7.4481 4.54055L8.15521 3.83345ZM9.84697 6.93943C10.0422 7.13469 10.3588 7.13469 10.5541 6.93943C10.7493 6.74417 10.7493 6.42759 10.5541 6.23233L9.84697 6.93943ZM7.27252 11.8251C6.99637 11.8251 6.77252 12.0489 6.77252 12.3251C6.77252 12.6012 6.99637 12.8251 7.27252 12.8251V11.8251ZM11.9216 12.8251C12.1977 12.8251 12.4216 12.6012 12.4216 12.3251C12.4216 12.0489 12.1977 11.8251 11.9216 11.8251V12.8251ZM9.7774 2.89687L11.4909 4.61035L12.198 3.90325L10.4845 2.18976L9.7774 2.89687ZM11.4909 4.58864L4.80831 11.2712L5.51542 11.9783L12.198 5.29575L11.4909 4.58864ZM3.11654 9.57946L9.79912 2.89687L9.09201 2.18976L2.40944 8.87235L3.11654 9.57946ZM5.03462 11.1412L1.779 11.998L2.0335 12.9651L5.28911 12.1083L5.03462 11.1412ZM2.38979 12.6088L3.24653 9.35315L2.27945 9.09866L1.42271 12.3543L2.38979 12.6088ZM11.4909 4.61035C11.49 4.60951 11.4886 4.60757 11.4875 4.60502C11.4867 4.60281 11.4864 4.60095 11.4864 4.5995C11.4864 4.59805 11.4867 4.59619 11.4875 4.59398C11.4886 4.59143 11.49 4.58949 11.4909 4.58864L12.198 5.29575C12.5825 4.91122 12.5825 4.28778 12.198 3.90325L11.4909 4.61035ZM10.4845 2.18976C10.1 1.80523 9.47654 1.80524 9.09201 2.18976L9.79912 2.89687C9.79827 2.89772 9.79633 2.89917 9.79379 2.90021C9.79157 2.9011 9.78971 2.90137 9.78826 2.90137C9.78681 2.90137 9.78495 2.9011 9.78274 2.90021C9.78019 2.89917 9.77825 2.89772 9.7774 2.89687L10.4845 2.18976ZM7.4481 4.54055L9.84697 6.93943L10.5541 6.23233L8.15521 3.83345L7.4481 4.54055ZM7.27252 12.8251H11.9216V11.8251H7.27252V12.8251Z" fill="black" fill-opacity="0.4"/>
</svg>
