<svg width="18" height="18" viewBox="0 0 18 18" xmlns="http://www.w3.org/2000/svg">
<path d="M11.0625 5.625C11.0625 5.31434 11.3143 5.0625 11.625 5.0625H12.75C13.0607 5.0625 13.3125 5.31434 13.3125 5.625C13.3125 5.93566 13.0607 6.1875 12.75 6.1875H11.625C11.3143 6.1875 11.0625 5.93566 11.0625 5.625Z" />
<path d="M10.5 8.0625C10.1893 8.0625 9.9375 8.31434 9.9375 8.625C9.9375 8.93566 10.1893 9.1875 10.5 9.1875H12.75C13.0607 9.1875 13.3125 8.93566 13.3125 8.625C13.3125 8.31434 13.0607 8.0625 12.75 8.0625H10.5Z" />
<path d="M9.9375 11.625C9.9375 11.3143 10.1893 11.0625 10.5 11.0625H12.75C13.0607 11.0625 13.3125 11.3143 13.3125 11.625C13.3125 11.9357 13.0607 12.1875 12.75 12.1875H10.5C10.1893 12.1875 9.9375 11.9357 9.9375 11.625Z" />
<path d="M3.35225 8.27275C3.13258 8.05308 3.13258 7.69692 3.35225 7.47725C3.57192 7.25758 3.92808 7.25758 4.14775 7.47725L4.875 8.2045L5.60225 7.47725C5.82192 7.25758 6.17808 7.25758 6.39775 7.47725C6.61742 7.69692 6.61742 8.05308 6.39775 8.27275L5.6705 9L6.39775 9.72725C6.61742 9.94692 6.61742 10.3031 6.39775 10.5227C6.17808 10.7424 5.82192 10.7424 5.60225 10.5227L4.875 9.7955L4.14775 10.5227C3.92808 10.7424 3.57192 10.7424 3.35225 10.5227C3.13258 10.3031 3.13258 9.94692 3.35225 9.72725L4.0795 9L3.35225 8.27275Z"/>
<path d="M2.4375 12.9375V15.75C2.4375 16.4749 3.02513 17.0625 3.75 17.0625H14.25C14.9749 17.0625 15.5625 16.4749 15.5625 15.75V2.25C15.5625 1.52513 14.9749 0.9375 14.25 0.9375H3.75C3.02513 0.9375 2.4375 1.52513 2.4375 2.25V5.0625H1.5C1.18934 5.0625 0.9375 5.31434 0.9375 5.625V12.375C0.9375 12.6857 1.18934 12.9375 1.5 12.9375H2.4375ZM3.75 2.0625H14.25C14.3536 2.0625 14.4375 2.14644 14.4375 2.25V15.75C14.4375 15.8536 14.3536 15.9375 14.25 15.9375H3.75C3.64644 15.9375 3.5625 15.8536 3.5625 15.75V12.9375H8.25C8.56066 12.9375 8.8125 12.6857 8.8125 12.375V5.625C8.8125 5.31434 8.56066 5.0625 8.25 5.0625H3.5625V2.25C3.5625 2.14645 3.64645 2.0625 3.75 2.0625ZM7.6875 11.8125H2.0625V6.1875H7.6875V11.8125Z"/>
</svg>
