<svg width="12" height="13" viewBox="0 0 12 13" fill="none" xmlns="http://www.w3.org/2000/svg">
<path fill-rule="evenodd" clip-rule="evenodd" d="M2.1454 4.61505C3.08242 3.83836 4.44524 3 6.00002 3C7.5548 3 8.91761 3.83836 9.85463 4.61505C10.3302 5.00927 10.7139 5.40235 10.9788 5.69685C11.1116 5.84442 11.2153 5.96809 11.2866 6.05593C11.3223 6.09987 11.3499 6.13491 11.3691 6.15956L11.3914 6.18859L11.3977 6.19693L11.3996 6.1995L11.4003 6.20038L11.4005 6.20071C11.4007 6.20085 11.4007 6.20098 11 6.5C11.4007 6.79902 11.4007 6.79915 11.4005 6.79929L11.4003 6.79962L11.3996 6.8005L11.3977 6.80307L11.3914 6.81141L11.3691 6.84044C11.3499 6.86509 11.3223 6.90013 11.2866 6.94407C11.2153 7.03191 11.1116 7.15558 10.9788 7.30315C10.7139 7.59765 10.3302 7.99073 9.85463 8.38495C8.91761 9.16164 7.5548 10 6.00002 10C4.44524 10 3.08242 9.16164 2.1454 8.38495C1.6698 7.99073 1.28615 7.59765 1.02122 7.30315C0.888463 7.15558 0.784751 7.03191 0.713434 6.94407C0.677758 6.90013 0.650134 6.86509 0.630981 6.84044L0.608639 6.81141L0.60232 6.80307L0.600389 6.8005L0.599733 6.79962L0.599483 6.79929C0.599379 6.79915 0.599284 6.79902 1.00002 6.5C0.599284 6.20098 0.599379 6.20085 0.599483 6.20071L0.599733 6.20038L0.600389 6.1995L0.60232 6.19693L0.608639 6.18859L0.630981 6.15956C0.650134 6.13491 0.677758 6.09987 0.713434 6.05593C0.784751 5.96809 0.888463 5.84442 1.02122 5.69685C1.28615 5.40235 1.6698 5.00927 2.1454 4.61505ZM1.00002 6.5L0.599284 6.20098C0.466926 6.37836 0.466926 6.62164 0.599284 6.79902L1.00002 6.5ZM1.64611 6.5C1.68199 6.54148 1.72156 6.58644 1.76466 6.63435C2.00575 6.90235 2.35434 7.25927 2.78356 7.61505C3.65619 8.33836 4.79337 9 6.00002 9C7.20666 9 8.34384 8.33836 9.21647 7.61505C9.64569 7.25927 9.99428 6.90235 10.2354 6.63435C10.2785 6.58644 10.318 6.54148 10.3539 6.5C10.318 6.45852 10.2785 6.41356 10.2354 6.36565C9.99428 6.09765 9.64569 5.74073 9.21647 5.38495C8.34384 4.66164 7.20666 4 6.00002 4C4.79337 4 3.65619 4.66164 2.78356 5.38495C2.35434 5.74073 2.00575 6.09765 1.76466 6.36565C1.72156 6.41356 1.68199 6.45852 1.64611 6.5ZM11 6.5L11.4007 6.79902C11.5331 6.62164 11.5331 6.37836 11.4007 6.20098L11 6.5ZM4.25002 6.5C4.25002 5.5335 5.03352 4.75 6.00002 4.75C6.96652 4.75 7.75002 5.5335 7.75002 6.5C7.75002 7.4665 6.96652 8.25 6.00002 8.25C5.03352 8.25 4.25002 7.4665 4.25002 6.5ZM6.00002 5.75C5.5858 5.75 5.25002 6.08579 5.25002 6.5C5.25002 6.91421 5.5858 7.25 6.00002 7.25C6.41423 7.25 6.75002 6.91421 6.75002 6.5C6.75002 6.08579 6.41423 5.75 6.00002 5.75Z" fill="black" fill-opacity="0.4"/>
</svg>
