<svg width="16" height="16" viewBox="0 0 16 16" xmlns="http://www.w3.org/2000/svg">
<path d="M2.7993 3.16675C2.65624 3.16675 2.57966 3.33514 2.67369 3.44296L7.0435 8.45367C7.12292 8.54473 7.16667 8.66148 7.16667 8.7823V12.9562C7.16667 13.02 7.20316 13.0783 7.26063 13.1061L8.59396 13.7526C8.70465 13.8063 8.83334 13.7256 8.83334 13.6026V8.7823C8.83334 8.66148 8.87709 8.54473 8.95651 8.45367L13.3263 3.44296C13.4203 3.33514 13.3438 3.16675 13.2007 3.16675H2.7993ZM1.92003 4.10022C1.26182 3.34547 1.79786 2.16675 2.7993 2.16675H13.2007C14.2022 2.16675 14.7382 3.34547 14.08 4.10022L9.83334 8.9697V13.6026C9.83334 14.4637 8.93249 15.0281 8.15769 14.6524L6.82435 14.0059C6.42211 13.8109 6.16667 13.4032 6.16667 12.9562V8.9697L1.92003 4.10022Z"  fill-opacity="0.8"/>
</svg>
