<svg width="18" height="18" viewBox="0 0 18 18" xmlns="http://www.w3.org/2000/svg">
<path d="M5.4375 7.5C5.4375 7.18934 5.68934 6.9375 6 6.9375H12C12.3107 6.9375 12.5625 7.18934 12.5625 7.5C12.5625 7.81066 12.3107 8.0625 12 8.0625H6C5.68934 8.0625 5.4375 7.81066 5.4375 7.5Z" />
<path d="M6 9.1875C5.68934 9.1875 5.4375 9.43934 5.4375 9.75C5.4375 10.0607 5.68934 10.3125 6 10.3125H12C12.3107 10.3125 12.5625 10.0607 12.5625 9.75C12.5625 9.43934 12.3107 9.1875 12 9.1875H6Z" />
<path d="M5.4375 12C5.4375 11.6893 5.68934 11.4375 6 11.4375H9.75C10.0607 11.4375 10.3125 11.6893 10.3125 12C10.3125 12.3107 10.0607 12.5625 9.75 12.5625H6C5.68934 12.5625 5.4375 12.3107 5.4375 12Z" />
<path d="M6.375 0.9375C6.06434 0.9375 5.8125 1.18934 5.8125 1.5V2.0625H3.75C3.02513 2.0625 2.4375 2.65013 2.4375 3.375V15.75C2.4375 16.4749 3.02513 17.0625 3.75 17.0625H14.25C14.9749 17.0625 15.5625 16.4749 15.5625 15.75V3.375C15.5625 2.65013 14.9749 2.0625 14.25 2.0625H12.1875V1.5C12.1875 1.18934 11.9357 0.9375 11.625 0.9375H6.375ZM12.1875 3.1875H14.25C14.3536 3.1875 14.4375 3.27144 14.4375 3.375V15.75C14.4375 15.8536 14.3536 15.9375 14.25 15.9375H3.75C3.64644 15.9375 3.5625 15.8536 3.5625 15.75V3.375C3.5625 3.27145 3.64645 3.1875 3.75 3.1875H5.8125V3.75C5.8125 4.06066 6.06434 4.3125 6.375 4.3125H11.625C11.9357 4.3125 12.1875 4.06066 12.1875 3.75V3.1875ZM11.0625 2.0625V3.1875H6.9375V2.0625H11.0625Z" />
</svg>
