<svg xmlns="http://www.w3.org/2000/svg" width="16" height="16" viewBox="0 0 16 16">
  <path d="M2.66683 1.5C2.39069 1.5 2.16683 1.72386 2.16683 2V6C2.16683 6.27614 2.39069 6.5 2.66683 6.5H7.50016V8.16667H2.66683C2.39069 8.16667 2.16683 8.39052 2.16683 8.66667V10.8333H1.3335C1.05735 10.8333 0.833496 11.0572 0.833496 11.3333V14C0.833496 14.2761 1.05735 14.5 1.3335 14.5H4.00016C4.27631 14.5 4.50016 14.2761 4.50016 14V11.3333C4.50016 11.0572 4.27631 10.8333 4.00016 10.8333H3.16683V9.16667H7.50016V10.8333H6.66683C6.39069 10.8333 6.16683 11.0572 6.16683 11.3333V14C6.16683 14.2761 6.39069 14.5 6.66683 14.5H9.3335C9.60964 14.5 9.8335 14.2761 9.8335 14V11.3333C9.8335 11.0572 9.60964 10.8333 9.3335 10.8333H8.50016V9.16667H12.8335V10.8333H12.0002C11.724 10.8333 11.5002 11.0572 11.5002 11.3333V14C11.5002 14.2761 11.724 14.5 12.0002 14.5H14.6668C14.943 14.5 15.1668 14.2761 15.1668 14V11.3333C15.1668 11.0572 14.943 10.8333 14.6668 10.8333H13.8335V8.66667C13.8335 8.39052 13.6096 8.16667 13.3335 8.16667H8.50016V6.5H13.3335C13.6096 6.5 13.8335 6.27614 13.8335 6V2C13.8335 1.72386 13.6096 1.5 13.3335 1.5H2.66683ZM7.16683 11.8333H8.8335V13.5H7.16683V11.8333ZM12.5002 11.8333H14.1668V13.5H12.5002V11.8333ZM1.8335 11.8333H3.50016V13.5H1.8335V11.8333ZM12.8335 5.5H3.16683V2.5H12.8335V5.5Z"/>
</svg>