<svg xmlns="http://www.w3.org/2000/svg" width="16" height="16" viewBox="0 0 16 16">
  <path d="M11.3227 8.862C11.0264 8.86215 10.7336 8.92565 10.4638 9.04823C10.1941 9.17081 9.95366 9.34965 9.75869 9.57275L8.77869 8.87875C8.88269 8.592 8.94269 8.28475 8.94269 7.96275C8.94269 7.646 8.88519 7.344 8.78469 7.06125L9.76269 6.37475C9.95767 6.59669 10.1977 6.7745 10.4669 6.89633C10.736 7.01816 11.028 7.0812 11.3234 7.08125C12.4734 7.08125 13.4094 6.146 13.4094 4.99525C13.4094 3.84475 12.4734 2.90925 11.3234 2.90925C10.999 2.90975 10.6792 2.98583 10.3893 3.13147C10.0994 3.27711 9.84742 3.48829 9.65336 3.74827C9.4593 4.00826 9.3285 4.30988 9.27131 4.62922C9.21413 4.94856 9.23215 5.27683 9.32394 5.588L8.34544 6.27475C7.92795 5.75716 7.33389 5.41214 6.67744 5.306V4.12675C7.14545 4.02762 7.56526 3.77089 7.86676 3.39946C8.16825 3.02803 8.33316 2.56439 8.33394 2.086C8.33394 0.93525 7.39794 0 6.24794 0C5.09794 0 4.16269 0.93525 4.16269 2.086C4.16342 2.55771 4.32388 3.01528 4.61792 3.38413C4.91197 3.75299 5.32225 4.0114 5.78194 4.11725V5.312C5.15863 5.4222 4.59395 5.74814 4.18676 6.23276C3.77957 6.71737 3.55582 7.32978 3.55469 7.96275C3.55585 8.5991 3.78201 9.21454 4.19318 9.70023C4.60434 10.1859 5.17401 10.5106 5.80144 10.6168V11.878C5.33758 11.9805 4.92252 12.2381 4.62474 12.6082C4.32696 12.9784 4.16424 13.4389 4.16344 13.914C4.16269 15.0648 5.09794 16 6.24794 16C7.39794 16 8.33394 15.0648 8.33394 13.914C8.33327 13.4389 8.17061 12.9783 7.8728 12.6081C7.575 12.2379 7.15986 11.9804 6.69594 11.878V10.6168C7.34018 10.5081 7.923 10.169 8.33594 9.66275L9.32269 10.3612C9.26635 10.5517 9.23764 10.7493 9.23744 10.948C9.23744 12.098 10.1734 13.034 11.3234 13.034C12.4734 13.034 13.4094 12.0988 13.4094 10.948C13.4094 9.79725 12.4727 8.862 11.3227 8.862ZM11.3227 3.9845C11.5908 3.98483 11.8479 4.09151 12.0375 4.28114C12.2271 4.47077 12.3337 4.72786 12.3339 4.996C12.3336 5.2641 12.227 5.52112 12.0374 5.7107C11.8478 5.90027 11.5908 6.00692 11.3227 6.00725C11.0546 6.00679 10.7977 5.9001 10.6081 5.71055C10.4186 5.52101 10.3119 5.26406 10.3114 4.996C10.3119 4.72794 10.4186 4.471 10.6081 4.28145C10.7977 4.0919 11.0546 3.98521 11.3227 3.98475V3.9845ZM5.23669 2.08625C5.23702 1.81815 5.34367 1.56113 5.53324 1.37155C5.72282 1.18198 5.97984 1.07533 6.24794 1.075C6.51608 1.07526 6.77317 1.18188 6.9628 1.37147C7.15242 1.56105 7.25911 1.81811 7.25944 2.08625C7.25911 2.35439 7.15242 2.61145 6.9628 2.80103C6.77317 2.99062 6.51608 3.09724 6.24794 3.0975C5.97984 3.09717 5.72282 2.99052 5.53324 2.80095C5.34367 2.61137 5.23702 2.35435 5.23669 2.08625ZM7.25919 13.9143C7.25886 14.1823 7.15221 14.4394 6.96263 14.6289C6.77306 14.8185 6.51604 14.9252 6.24794 14.9255C5.97984 14.9252 5.72282 14.8185 5.53324 14.6289C5.34367 14.4394 5.23702 14.1823 5.23669 13.9143C5.23702 13.6462 5.34367 13.3891 5.53324 13.1996C5.72282 13.01 5.97984 12.9033 6.24794 12.903C6.51608 12.9033 6.77317 13.0099 6.9628 13.1995C7.15242 13.389 7.25911 13.6461 7.25944 13.9143H7.25919ZM6.24794 9.3735C5.87397 9.3731 5.51544 9.22437 5.251 8.95994C4.98657 8.6955 4.83783 8.33697 4.83744 7.963C4.83777 7.58899 4.98647 7.23039 5.25091 6.9659C5.51535 6.70142 5.87393 6.55265 6.24794 6.55225C6.62199 6.55258 6.98063 6.70132 7.24512 6.96582C7.50962 7.23031 7.65836 7.58895 7.65869 7.963C7.65829 8.33701 7.50952 8.69558 7.24503 8.96002C6.98055 9.22447 6.62195 9.37317 6.24794 9.3735ZM11.3227 11.9595C11.0546 11.9592 10.7976 11.8525 10.608 11.6629C10.4184 11.4734 10.3118 11.2163 10.3114 10.9483C10.3118 10.6802 10.4184 10.4231 10.608 10.2336C10.7976 10.044 11.0546 9.93733 11.3227 9.937C11.5908 9.93733 11.8478 10.044 12.0374 10.2336C12.227 10.4231 12.3336 10.6802 12.3339 10.9483C12.3336 11.2163 12.227 11.4734 12.0374 11.6629C11.8478 11.8525 11.5908 11.9592 11.3227 11.9595Z"/>
</svg>