<svg width="16" height="16" viewBox="0 0 16 16" xmlns="http://www.w3.org/2000/svg">
<g clip-path="url(#clip0_5173_61818)">
<path d="M1.66732 0.833252C1.20708 0.833252 0.833984 1.20635 0.833984 1.66659V14.3333C0.833984 14.7935 1.20709 15.1666 1.66732 15.1666H6.33398C6.79423 15.1666 7.16732 14.7935 7.16732 14.3333V11.3333C7.16732 11.0571 6.94346 10.8333 6.66732 10.8333C6.39118 10.8333 6.16732 11.0571 6.16732 11.3333V14.1666H1.83398V8.49992H5.52468L4.7721 9.2525C4.57684 9.44776 4.57684 9.76434 4.7721 9.95961C4.96736 10.1549 5.28394 10.1549 5.4792 9.95961L7.0702 8.36861C7.16397 8.27484 7.21665 8.14766 7.21665 8.01505C7.21665 7.88244 7.16397 7.75527 7.0702 7.6615L5.4792 6.0705C5.28394 5.87524 4.96736 5.87524 4.7721 6.0705C4.57684 6.26576 4.57684 6.58234 4.7721 6.77761L5.49441 7.49992H1.83398V1.83325H6.16732V4.66659C6.16732 4.94273 6.39118 5.16659 6.66732 5.16659C6.94346 5.16659 7.16732 4.94273 7.16732 4.66659V1.66659C7.16732 1.20636 6.79423 0.833252 6.33398 0.833252H1.66732Z" fill-opacity="0.8"/>
<path d="M9.66732 0.833252C9.20707 0.833252 8.83398 1.20636 8.83398 1.66659V4.66659C8.83398 4.94273 9.05784 5.16659 9.33398 5.16659C9.61013 5.16659 9.83398 4.94273 9.83398 4.66659V1.83325H14.1673V7.49992H10.5481L11.2704 6.77761C11.4656 6.58234 11.4656 6.26576 11.2704 6.0705C11.0751 5.87524 10.7585 5.87524 10.5633 6.0705L9.03368 7.60011C8.9739 7.64509 8.92453 7.70315 8.88984 7.77005C8.78264 7.96058 8.81012 8.20643 8.97229 8.3686L10.5633 9.95961C10.7585 10.1549 11.0751 10.1549 11.2704 9.95961C11.4656 9.76434 11.4656 9.44776 11.2704 9.2525L10.5178 8.49992H14.1673V14.1666H9.83398V11.3333C9.83398 11.0571 9.61013 10.8333 9.33398 10.8333C9.05784 10.8333 8.83398 11.0571 8.83398 11.3333V14.3333C8.83398 14.7935 9.20708 15.1666 9.66732 15.1666H14.334C14.7942 15.1666 15.1673 14.7935 15.1673 14.3333V1.66659C15.1673 1.20636 14.7942 0.833252 14.334 0.833252H9.66732Z" fill-opacity="0.8"/>
</g>
<defs>
<clipPath id="clip0_5173_61818">
<rect width="16" height="16" />
</clipPath>
</defs>
</svg>
