<svg width="12" height="12" viewBox="0 0 12 12" xmlns="http://www.w3.org/2000/svg">
<path d="M7.12499 1.625C7.12499 2.24633 6.62131 2.75001 5.99999 2.75001C5.37867 2.75001 4.87498 2.24633 4.87498 1.625C4.87498 1.00368 5.37867 0.5 5.99999 0.5C6.62131 0.5 7.12499 1.00368 7.12499 1.625Z" />
<path d="M7.12499 6.00002C7.12499 6.62134 6.62131 7.12502 5.99999 7.12502C5.37867 7.12502 4.87498 6.62134 4.87498 6.00002C4.87498 5.37869 5.37867 4.87501 5.99999 4.87501C6.62131 4.87501 7.12499 5.37869 7.12499 6.00002Z" />
<path d="M5.99999 11.5C6.62131 11.5 7.12499 10.9964 7.12499 10.375C7.12499 9.75371 6.62131 9.25002 5.99999 9.25002C5.37867 9.25002 4.87498 9.75371 4.87498 10.375C4.87498 10.9964 5.37867 11.5 5.99999 11.5Z" />
</svg>
