<svg width="20" height="21" viewBox="0 0 20 21" fill="none" xmlns="http://www.w3.org/2000/svg">
<path fill-rule="evenodd" clip-rule="evenodd" d="M6.27544 5.89137C6.03136 5.64729 5.63563 5.64729 5.39155 5.89137C5.14748 6.13545 5.14748 6.53118 5.39155 6.77525L9.11628 10.5L5.39155 14.2247C5.14748 14.4688 5.14748 14.8645 5.39155 15.1086C5.63563 15.3527 6.03136 15.3527 6.27544 15.1086L10.0002 11.3839L13.7249 15.1086C13.969 15.3527 14.3647 15.3527 14.6088 15.1086C14.8528 14.8645 14.8528 14.4688 14.6088 14.2247L10.884 10.5L14.6088 6.77525C14.8528 6.53118 14.8528 6.13545 14.6088 5.89137C14.3647 5.64729 13.969 5.64729 13.7249 5.89137L10.0002 9.6161L6.27544 5.89137Z" fill="#2B67FF"/>
</svg>
