<svg width="14" height="14" viewBox="0 0 14 14" fill="none" xmlns="http://www.w3.org/2000/svg">
<path fill-rule="evenodd" clip-rule="evenodd" d="M11.1285 3.77902L6.10395 9.73843V12.2901C6.10395 12.6214 5.83532 12.8901 5.50395 12.8901C5.17258 12.8901 4.90395 12.6214 4.90395 12.2901V9.62579C4.90395 9.41543 4.97832 9.21185 5.11391 9.05103L9.91428 3.35757L2.92325 6.75599L4.45978 7.52425C4.75616 7.67245 4.8763 8.03285 4.7281 8.32924C4.57991 8.62563 4.21951 8.74576 3.92312 8.59757L1.56268 7.41735C1.00952 7.14077 1.01394 6.34985 1.57015 6.07947L11.5536 1.2264C12.0949 0.963278 12.7089 1.41661 12.6167 2.01137L11.0892 11.8706C11.007 12.4012 10.4079 12.6737 9.95393 12.387L7.37105 10.7557C7.09088 10.5788 7.0072 10.2082 7.18415 9.92801C7.3611 9.64784 7.73167 9.56417 8.01184 9.74112L10.0094 11.0027L11.1285 3.77902Z" fill="#2B67FF"/>
</svg>
