<svg xmlns="http://www.w3.org/2000/svg" viewBox="0 0 14 14" fill="none">
  <path fill-rule="evenodd" clip-rule="evenodd" d="M7.45649 2.91732C7.45681 2.6757 7.26119 2.47957 7.01956 2.47925C6.77794 2.47893 6.58181 2.67455 6.58149 2.91618L6.57672 6.56258H2.91797C2.67634 6.56258 2.48047 6.75846 2.48047 7.00008C2.48047 7.24171 2.67634 7.43758 2.91797 7.43758H6.57558L6.57081 11.0828C6.57049 11.3245 6.76611 11.5206 7.00774 11.5209C7.24936 11.5212 7.44549 11.3256 7.44581 11.084L7.45058 7.43758H11.0846C11.3263 7.43758 11.5221 7.24171 11.5221 7.00008C11.5221 6.75846 11.3263 6.56258 11.0846 6.56258H7.45172L7.45649 2.91732Z" fill="#2B67FF"/>
</svg>