<svg width="18" height="18" viewBox="0 0 18 18" xmlns="http://www.w3.org/2000/svg">
<path fill-rule="evenodd" clip-rule="evenodd" d="M2.10039 9.00002C2.10039 5.18926 5.18963 2.10002 9.00039 2.10002C11.4385 2.10002 13.5818 3.36415 14.81 5.27556C14.9891 5.55434 15.3603 5.63512 15.6391 5.456C15.9179 5.27687 15.9986 4.90566 15.8195 4.62688C14.3799 2.3864 11.8639 0.900024 9.00039 0.900024C4.52688 0.900024 0.900391 4.52652 0.900391 9.00002C0.900391 13.4735 4.52688 17.1 9.00039 17.1C11.8639 17.1 14.3799 15.6136 15.8195 13.3732C15.9986 13.0944 15.9179 12.7232 15.6391 12.5441C15.3603 12.3649 14.9891 12.4457 14.81 12.7245C13.5818 14.6359 11.4385 15.9 9.00039 15.9C5.18963 15.9 2.10039 12.8108 2.10039 9.00002ZM10.2636 6.61179C10.0293 6.37747 10.0293 5.99757 10.2636 5.76326C10.4979 5.52895 10.8778 5.52895 11.1122 5.76326L13.9247 8.57576C14.159 8.81007 14.159 9.18997 13.9247 9.42429L11.1122 12.2368C10.8778 12.4711 10.4979 12.4711 10.2636 12.2368C10.0293 12.0025 10.0293 11.6226 10.2636 11.3883L12.0519 9.60002H5.25039C4.91902 9.60002 4.65039 9.3314 4.65039 9.00002C4.65039 8.66865 4.91902 8.40002 5.25039 8.40002H12.0519L10.2636 6.61179Z"/>
</svg>
