<svg width="12" height="12" viewBox="0 0 12 12" xmlns="http://www.w3.org/2000/svg">
<path fill-rule="evenodd" clip-rule="evenodd" d="M3.25 2C3.25 1.17157 3.92157 0.5 4.75 0.5H7.25C8.07843 0.5 8.75 1.17157 8.75 2V2.625H10.75C11.0261 2.625 11.25 2.84886 11.25 3.125C11.25 3.40114 11.0261 3.625 10.75 3.625H1.25C0.973858 3.625 0.75 3.40114 0.75 3.125C0.75 2.84886 0.973858 2.625 1.25 2.625H3.25V2ZM7.75 2.5V2C7.75 1.72386 7.52614 1.5 7.25 1.5H4.75C4.47386 1.5 4.25 1.72386 4.25 2V2.5H7.75ZM2.75 4C3.02614 4 3.25 4.22386 3.25 4.5V9.75C3.25 10.0261 3.47386 10.25 3.75 10.25H8.25C8.52614 10.25 8.75 10.0261 8.75 9.75V4.5C8.75 4.22386 8.97386 4 9.25 4C9.52614 4 9.75 4.22386 9.75 4.5V9.75C9.75 10.5784 9.07843 11.25 8.25 11.25H3.75C2.92157 11.25 2.25 10.5784 2.25 9.75V4.5C2.25 4.22386 2.47386 4 2.75 4ZM5 4.5C5.27614 4.5 5.5 4.72386 5.5 5V8.5C5.5 8.77614 5.27614 9 5 9C4.72386 9 4.5 8.77614 4.5 8.5V5C4.5 4.72386 4.72386 4.5 5 4.5ZM7 4.5C7.27614 4.5 7.5 4.72386 7.5 5V8.5C7.5 8.77614 7.27614 9 7 9C6.72386 9 6.5 8.77614 6.5 8.5V5C6.5 4.72386 6.72386 4.5 7 4.5Z" />
</svg>
