<svg width="16" height="16" viewBox="0 0 16 16" fill="none" xmlns="http://www.w3.org/2000/svg">
<path fill-rule="evenodd" clip-rule="evenodd" d="M6.99998 0.833344C3.59422 0.833344 0.833313 3.59425 0.833313 7.00001C0.833313 10.4058 3.59422 13.1667 6.99998 13.1667C8.52286 13.1667 9.91682 12.6147 10.9926 11.6998L13.5488 14.2559C13.7441 14.4512 14.0606 14.4512 14.2559 14.2559C14.4512 14.0607 14.4512 13.7441 14.2559 13.5488L11.6998 10.9927C12.6146 9.91685 13.1666 8.52289 13.1666 7.00001C13.1666 3.59425 10.4057 0.833344 6.99998 0.833344ZM1.83331 7.00001C1.83331 4.14654 4.14651 1.83334 6.99998 1.83334C9.85345 1.83334 12.1666 4.14654 12.1666 7.00001C12.1666 9.85348 9.85345 12.1667 6.99998 12.1667C4.14651 12.1667 1.83331 9.85348 1.83331 7.00001Z" fill="black" fill-opacity="0.4"/>
</svg>
