<svg xmlns="http://www.w3.org/2000/svg" width="16" height="16" viewBox="0 0 16 16">
  <path d="M10.0246 5.58825C10.217 5.3902 10.2125 5.07365 10.0145 4.88121C9.81641 4.68878 9.49986 4.69332 9.30742 4.89137L6.31322 7.97282L4.67139 6.46087C4.46826 6.27381 4.15195 6.28684 3.96488 6.48997C3.77782 6.6931 3.79085 7.00941 3.99398 7.19648L5.99388 9.03818C6.19317 9.2217 6.50238 9.21312 6.69118 9.01881L10.0246 5.58825Z" />
  <path d="M1.16602 2.66675C1.16602 1.83832 1.83759 1.16675 2.66602 1.16675H11.3327C12.1611 1.16675 12.8327 1.83833 12.8327 2.66675V11.3334C12.8327 12.1619 12.1611 12.8334 11.3327 12.8334H2.66602C1.8376 12.8334 1.16602 12.1619 1.16602 11.3334V2.66675ZM2.66602 2.16675C2.38987 2.16675 2.16602 2.39061 2.16602 2.66675V11.3334C2.16602 11.6096 2.38987 11.8334 2.66602 11.8334H11.3327C11.6088 11.8334 11.8327 11.6096 11.8327 11.3334V2.66675C11.8327 2.3906 11.6088 2.16675 11.3327 2.16675H2.66602Z" />
  <path d="M14.666 3.83409C14.9421 3.83409 15.166 4.05794 15.166 4.33409V14.0001C15.166 14.6444 14.6436 15.1668 13.9993 15.1668H4.33382C4.05768 15.1668 3.83382 14.9429 3.83382 14.6668C3.83382 14.3906 4.05768 14.1668 4.33382 14.1668H13.9993C14.0913 14.1668 14.166 14.0922 14.166 14.0001V4.33409C14.166 4.05794 14.3898 3.83409 14.666 3.83409Z" />
</svg>