<svg width="18" height="18" viewBox="0 0 18 18" xmlns="http://www.w3.org/2000/svg">
<g clip-path="url(#clip0_4920_18994)">
<path d="M17.25 5.21739C17.25 6.44202 16.2968 7.43478 15.121 7.43478C14.9816 7.43478 14.8454 7.42084 14.7135 7.39422L12.2873 12.2901C12.7166 12.6455 12.9919 13.1942 12.9919 13.8098C12.9919 14.8813 12.1579 15.75 11.129 15.75C10.1002 15.75 9.26612 14.8813 9.26612 13.8098C9.26612 13.4725 9.34876 13.1553 9.49411 12.8789L5.62703 9.52263C5.43669 9.60607 5.22755 9.65219 5.00807 9.65219C4.81808 9.65219 4.63584 9.61763 4.46683 9.55422L3.19359 11.9412C3.33122 12.1594 3.41129 12.4205 3.41129 12.7011C3.41129 13.4665 2.81554 14.087 2.08064 14.087C1.34575 14.087 0.75 13.4665 0.75 12.7011C0.75 11.9357 1.34575 11.3152 2.08064 11.3152C2.27901 11.3152 2.46724 11.3604 2.63635 11.4415L3.86085 9.14591C3.58257 8.84659 3.4113 8.4387 3.4113 7.98915C3.4113 7.07067 4.1262 6.3261 5.00807 6.3261C5.88995 6.3261 6.60484 7.07067 6.60484 7.98915C6.60484 8.39969 6.46201 8.77549 6.22528 9.06558L9.95535 12.303C10.2757 12.032 10.6841 11.8696 11.129 11.8696C11.309 11.8696 11.483 11.8961 11.6476 11.9457L14.0362 7.12576C13.411 6.73945 12.9919 6.02939 12.9919 5.21739C12.9919 3.99276 13.9451 3 15.121 3C16.2968 3 17.25 3.99276 17.25 5.21739Z" />
</g>
<defs>
<clipPath id="clip0_4920_18994">
<rect width="18" height="18" />
</clipPath>
</defs>
</svg>

