<svg width="16" height="16" viewBox="0 0 16 16" xmlns="http://www.w3.org/2000/svg">
<path d="M6.8331 1.98326C6.83753 1.84979 6.78881 1.71488 6.68693 1.613C6.49167 1.41774 6.17508 1.41774 5.97982 1.613L1.97982 5.613C1.78456 5.80826 1.78456 6.12484 1.97982 6.3201C2.17508 6.51536 2.49167 6.51537 2.68693 6.3201L5.83337 3.17366V14.0001C5.83337 14.2762 6.05723 14.5001 6.33337 14.5001C6.60952 14.5001 6.83337 14.2762 6.83337 14.0001V2.00008C6.83337 1.99445 6.83328 1.98885 6.8331 1.98326Z" fill-opacity="0.8"/>
<path d="M9.66671 1.53361C9.94285 1.53361 10.1667 1.75747 10.1667 2.03361V12.8265L13.3132 9.68006C13.5084 9.4848 13.825 9.4848 14.0203 9.68006C14.2155 9.87532 14.2155 10.1919 14.0203 10.3872L10.0203 14.3872C9.97232 14.4351 9.91707 14.4713 9.8581 14.4957C9.80665 14.517 9.75087 14.53 9.69244 14.533C9.68392 14.5334 9.67534 14.5336 9.66671 14.5336C9.53875 14.5336 9.41079 14.4848 9.31315 14.3872C9.26522 14.3392 9.22905 14.284 9.20465 14.225C9.18331 14.1736 9.17032 14.1178 9.16736 14.0593C9.16693 14.0508 9.16671 14.0422 9.16671 14.0336V2.03361C9.16671 1.75747 9.39057 1.53361 9.66671 1.53361Z" fill-opacity="0.8"/>
</svg>
