<svg width="18" height="18" viewBox="0 0 18 18" xmlns="http://www.w3.org/2000/svg">
<g clip-path="url(#clip0_4920_16453)">
<path d="M0.739304 13.5214C1.2112 14.0658 1.91904 14.3221 2.84711 14.3221C3.77517 14.3221 4.48301 14.0658 4.98637 13.5374C5.47399 13.0089 5.72567 12.2562 5.72567 11.2794C5.72567 10.4466 5.53691 9.79003 5.17512 9.30961C4.79761 8.8452 4.26279 8.46085 3.53922 8.1726L2.89429 7.91637C2.29656 7.69217 1.87185 7.41993 1.62018 7.11566C1.3685 6.8274 1.25839 6.41103 1.25839 5.88256C1.25839 5.30605 1.38423 4.84164 1.66737 4.52135C1.93477 4.20107 2.34375 4.04093 2.89429 4.04093C3.78461 4.04093 4.32787 4.52381 4.51416 5.46937C4.5699 5.7523 4.8022 5.97865 5.09056 5.97865C5.40208 5.97865 5.65431 5.71721 5.60748 5.40922C5.49942 4.69849 5.25301 4.14902 4.87626 3.75267C4.38863 3.25623 3.72798 3 2.91002 3C2.02915 3 1.35277 3.27224 0.849413 3.80071C0.346057 4.3452 0.110109 5.04982 0.110109 5.94662C0.110109 6.7153 0.283138 7.30783 0.644924 7.75623C0.990981 8.20463 1.5258 8.57295 2.24937 8.86121L2.87856 9.11744C3.50776 9.38968 3.9482 9.67794 4.19987 9.96619C4.45155 10.2705 4.57739 10.7189 4.57739 11.2954C4.57739 11.968 4.43582 12.4804 4.15268 12.8007C3.86955 13.121 3.46057 13.2811 2.89429 13.2811C2.32802 13.2811 1.90331 13.121 1.60445 12.8007C1.38258 12.5629 1.23873 12.2016 1.16647 11.7233C1.12117 11.4235 0.877548 11.1833 0.574357 11.1833C0.258584 11.1833 -6.23296e-05 11.4427 0.0361228 11.7564C0.122481 12.505 0.359606 13.0961 0.739304 13.5214Z" />
<path d="M11.8411 12.8488C12.0771 12.3523 12.2029 11.7278 12.2029 10.9911V6.379C12.2029 5.25801 11.9355 4.40925 11.4007 3.84875C10.8659 3.30427 10.1423 3.01601 9.26145 3.01601C8.36484 3.01601 7.657 3.30427 7.12219 3.84875C6.58737 4.40925 6.31996 5.25801 6.31996 6.379V10.9911C6.31996 12.1121 6.58737 12.9448 7.12219 13.5053C7.657 14.0658 8.36484 14.3381 9.26145 14.3381C9.46593 14.3381 9.67042 14.3221 9.85918 14.29L10.5641 16.0276C10.6699 16.2884 10.9673 16.4139 11.2279 16.3077C11.4884 16.2017 11.6135 15.9045 11.5074 15.6441L10.8187 13.9537C11.2591 13.7135 11.5895 13.3452 11.8411 12.8488ZM11.0547 6.4911V11.0071C11.0547 11.7758 10.8974 12.3363 10.5828 12.7206C10.2682 13.105 9.84345 13.2811 9.27718 13.2811C8.06598 13.2811 7.46824 12.5285 7.46824 11.0071V6.4911C7.46824 5.67438 7.60981 5.06584 7.90868 4.66548C8.20755 4.28114 8.66371 4.07295 9.27718 4.07295C9.84345 4.07295 10.2839 4.28114 10.5985 4.68149C10.8974 5.08185 11.0547 5.69039 11.0547 6.4911Z"/>
<path d="M13.7451 3.16014C13.428 3.16014 13.1709 3.41719 13.1709 3.73428V13.21C13.1709 13.7622 13.6186 14.21 14.1709 14.21H17.4795C17.767 14.21 18 13.9769 18 13.6895C18 13.4021 17.767 13.169 17.4795 13.169H14.3192V3.73428C14.3192 3.41719 14.0622 3.16014 13.7451 3.16014Z" />
</g>
<defs>
<clipPath id="clip0_4920_16453">
<rect width="18" height="18" fill="white"/>
</clipPath>
</defs>
</svg>
