<svg width="15" height="15" viewBox="0 0 15 15" fill="none" xmlns="http://www.w3.org/2000/svg">
<path d="M0.344492 3.2257V2.39579H2.20788V0H3.39795V2.39579H5.13607V3.2257H3.46058C3.85727 4.9586 4.44708 6.51404 5.23002 7.89201V9.25432C4.42621 8.13733 3.81551 7.0621 3.39795 6.02862V14.2025H2.20788V6.34179C1.69636 7.86591 0.960403 9.35349 0 10.8045V9.33261C0.970842 7.47444 1.68593 5.43881 2.14525 3.2257H0.344492ZM5.21436 5.41793V4.57235H14.2964V5.41793H10.3191V12.1668C10.3191 12.835 10.1834 13.3152 9.91199 13.6075C9.64057 13.8997 9.19168 14.0459 8.56533 14.0459H7.39093V13.1847H8.14255C8.49748 13.1847 8.7428 13.1116 8.87851 12.9654C9.01422 12.8193 9.08207 12.574 9.08207 12.2295V5.41793H5.21436ZM5.91901 1.87905V1.03348H13.5918V1.87905H5.91901ZM4.76026 12.8089V11.8537C5.34485 11.1229 5.75198 10.4235 5.98164 9.7554C6.23218 9.0351 6.38355 8.06948 6.43575 6.85853H7.57883C7.50576 8.37221 7.26044 9.56228 6.84287 10.4287C6.44618 11.2534 5.75198 12.0468 4.76026 12.8089ZM14.5 12.8089C13.5396 12.0155 12.8715 11.2064 12.4957 10.3817C12.1094 9.53618 11.8798 8.36177 11.8067 6.85853H12.9498C12.9915 8.02772 13.1325 8.9829 13.3726 9.72408C13.5918 10.4235 13.9676 11.1334 14.5 11.8537V12.8089Z" fill="#04D9E0"/>
</svg>
