<svg width="89" height="82" viewBox="0 0 89 82" fill="none" xmlns="http://www.w3.org/2000/svg">
<g filter="url(#filter0_d_10408_19281)">
<g filter="url(#filter1_d_10408_19281)">
<path d="M29.0833 14.6673H19.9166C17.8916 14.6673 16.25 16.3089 16.25 18.334V77.0006C16.25 79.0257 17.8916 80.6673 19.9166 80.6673H69.4166C71.4417 80.6673 73.0833 79.0257 73.0833 77.0006V18.334C73.0833 16.3089 71.4417 14.6673 69.4166 14.6673H60.25M30.9166 44.0007H58.4166M30.9166 60.5007H58.4166M30.9166 23.834H58.4166C59.4291 23.834 60.25 23.0132 60.25 22.0007V9.16732C60.25 8.1548 59.4291 7.33398 58.4166 7.33398H30.9166C29.9041 7.33398 29.0833 8.1548 29.0833 9.16732V22.0007C29.0833 23.0132 29.9041 23.834 30.9166 23.834Z" stroke="#16CEA1" stroke-width="8" stroke-linecap="round" shape-rendering="crispEdges"/>
</g>
</g>
<defs>
<filter id="filter0_d_10408_19281" x="0.666626" y="0" width="88.595" height="88" filterUnits="userSpaceOnUse" color-interpolation-filters="sRGB">
<feFlood flood-opacity="0" result="BackgroundImageFix"/>
<feColorMatrix in="SourceAlpha" type="matrix" values="0 0 0 0 0 0 0 0 0 0 0 0 0 0 0 0 0 0 127 0" result="hardAlpha"/>
<feOffset dx="0.595041"/>
<feComposite in2="hardAlpha" operator="out"/>
<feColorMatrix type="matrix" values="0 0 0 0 1 0 0 0 0 1 0 0 0 0 1 0 0 0 0.05 0"/>
<feBlend mode="normal" in2="BackgroundImageFix" result="effect1_dropShadow_10408_19281"/>
<feBlend mode="normal" in="SourceGraphic" in2="effect1_dropShadow_10408_19281" result="shape"/>
</filter>
<filter id="filter1_d_10408_19281" x="12.25" y="3.33398" width="65.9242" height="81.334" filterUnits="userSpaceOnUse" color-interpolation-filters="sRGB">
<feFlood flood-opacity="0" result="BackgroundImageFix"/>
<feColorMatrix in="SourceAlpha" type="matrix" values="0 0 0 0 0 0 0 0 0 0 0 0 0 0 0 0 0 0 127 0" result="hardAlpha"/>
<feOffset dx="1.09091"/>
<feComposite in2="hardAlpha" operator="out"/>
<feColorMatrix type="matrix" values="0 0 0 0 1 0 0 0 0 1 0 0 0 0 1 0 0 0 0.05 0"/>
<feBlend mode="normal" in2="BackgroundImageFix" result="effect1_dropShadow_10408_19281"/>
<feBlend mode="normal" in="SourceGraphic" in2="effect1_dropShadow_10408_19281" result="shape"/>
</filter>
</defs>
</svg>
