<svg viewBox="0 0 16 16" xmlns="http://www.w3.org/2000/svg">
<path d="M2.16602 2.83325C2.16602 2.55711 2.38987 2.33325 2.66602 2.33325H13.3327C13.6088 2.33325 13.8327 2.55711 13.8327 2.83325V4.16659C13.8327 4.44273 13.6088 4.66659 13.3327 4.66659C13.0565 4.66659 12.8327 4.44273 12.8327 4.16659V3.33325H8.49935V13.3333H9.33268C9.60882 13.3333 9.83268 13.5571 9.83268 13.8333C9.83268 14.1094 9.60882 14.3333 9.33268 14.3333H6.66602C6.38987 14.3333 6.16602 14.1094 6.16602 13.8333C6.16602 13.5571 6.38987 13.3333 6.66602 13.3333H7.49935V3.33325H3.16602V4.16659C3.16602 4.44273 2.94216 4.66659 2.66602 4.66659C2.38987 4.66659 2.16602 4.44273 2.16602 4.16659V2.83325Z" />
</svg>
