<svg viewBox="0 0 12 13" xmlns="http://www.w3.org/2000/svg">
<path d="M6.37716 3.49998C6.37718 3.29287 6.20931 3.12496 6.0022 3.12494C5.79509 3.12492 5.62718 3.29279 5.62716 3.4999L5.62686 6.5021C5.62685 6.60157 5.66636 6.69697 5.7367 6.7673L7.85655 8.88716C8.00299 9.0336 8.24043 9.0336 8.38688 8.88716C8.53332 8.74071 8.53332 8.50327 8.38688 8.35683L6.37688 6.34682L6.37716 3.49998Z"/>
<path d="M6.00006 1.12491C3.03153 1.12491 0.625061 3.53138 0.625061 6.49991C0.625061 9.46844 3.03153 11.8749 6.00006 11.8749C8.96859 11.8749 11.3751 9.46844 11.3751 6.49991C11.3751 3.53138 8.96859 1.12491 6.00006 1.12491ZM1.37506 6.49991C1.37506 3.94559 3.44574 1.87491 6.00006 1.87491C8.55438 1.87491 10.6251 3.94559 10.6251 6.49991C10.6251 9.05423 8.55438 11.1249 6.00006 11.1249C3.44574 11.1249 1.37506 9.05423 1.37506 6.49991Z"/>
</svg>
