<svg width="16" height="16" viewBox="0 0 16 16" xmlns="http://www.w3.org/2000/svg">
<path fill-rule="evenodd" clip-rule="evenodd" d="M4.49935 2.66671C4.49935 1.65419 5.32016 0.833374 6.33268 0.833374H9.66602C10.6785 0.833374 11.4993 1.65419 11.4993 2.66671V3.66671H14.3327C14.6088 3.66671 14.8327 3.89056 14.8327 4.16671C14.8327 4.44285 14.6088 4.66671 14.3327 4.66671H1.66602C1.38987 4.66671 1.16602 4.44285 1.16602 4.16671C1.16602 3.89056 1.38987 3.66671 1.66602 3.66671H4.49935V2.66671ZM6.33268 1.83337C5.87245 1.83337 5.49935 2.20647 5.49935 2.66671V3.50004H10.4993V2.66671C10.4993 2.20647 10.1263 1.83337 9.66602 1.83337H6.33268ZM6.66602 6.16671C6.94216 6.16671 7.16602 6.39056 7.16602 6.66671V11.3334C7.16602 11.6095 6.94216 11.8334 6.66602 11.8334C6.38987 11.8334 6.16602 11.6095 6.16602 11.3334V6.66671C6.16602 6.39056 6.38987 6.16671 6.66602 6.16671ZM9.83268 6.66671C9.83268 6.39056 9.60882 6.16671 9.33268 6.16671C9.05654 6.16671 8.83268 6.39056 8.83268 6.66671V11.3334C8.83268 11.6095 9.05654 11.8334 9.33268 11.8334C9.60882 11.8334 9.83268 11.6095 9.83268 11.3334V6.66671ZM4.16602 6.00004C4.16602 5.7239 3.94216 5.50004 3.66602 5.50004C3.38987 5.50004 3.16602 5.7239 3.16602 6.00004V13C3.16602 14.0126 3.98683 14.8334 4.99935 14.8334H10.9993C12.0119 14.8334 12.8327 14.0126 12.8327 13V6.00004C12.8327 5.7239 12.6088 5.50004 12.3327 5.50004C12.0565 5.50004 11.8327 5.7239 11.8327 6.00004V13C11.8327 13.4603 11.4596 13.8334 10.9993 13.8334H4.99935C4.53911 13.8334 4.16602 13.4603 4.16602 13V6.00004Z" fill-opacity="0.6"/>
</svg>
