<svg width="14" height="14" viewBox="0 0 14 14" xmlns="http://www.w3.org/2000/svg">
<path fill-rule="evenodd" clip-rule="evenodd" d="M2.62565 1.95825C2.25746 1.95825 1.95898 2.25673 1.95898 2.62492V8.45825C1.95898 8.82644 2.25746 9.12492 2.62565 9.12492H3.87565V5.54159C3.87565 4.62111 4.62184 3.87492 5.54232 3.87492H9.12565V2.62492C9.12565 2.25673 8.82717 1.95825 8.45898 1.95825H2.62565ZM10.1257 3.87492V2.62492C10.1257 1.70444 9.37946 0.958252 8.45898 0.958252H2.62565C1.70518 0.958252 0.958984 1.70444 0.958984 2.62492V8.45825C0.958984 9.37873 1.70518 10.1249 2.62565 10.1249H3.87565V11.3749C3.87565 12.2954 4.62184 13.0416 5.54232 13.0416H11.3757C12.2961 13.0416 13.0423 12.2954 13.0423 11.3749V5.54159C13.0423 4.62111 12.2961 3.87492 11.3757 3.87492H10.1257ZM5.54232 4.87492C5.17413 4.87492 4.87565 5.1734 4.87565 5.54159V11.3749C4.87565 11.7431 5.17413 12.0416 5.54232 12.0416H11.3757C11.7438 12.0416 12.0423 11.7431 12.0423 11.3749V5.54159C12.0423 5.1734 11.7438 4.87492 11.3757 4.87492H5.54232ZM10.2614 6.64892C10.4552 6.84558 10.453 7.16215 10.2563 7.35601L9.1441 8.45233L10.2683 9.5605C10.465 9.75435 10.4673 10.0709 10.2734 10.2676C10.0796 10.4642 9.76298 10.4665 9.56632 10.2727L8.43185 9.15441L7.35165 10.2192C7.15499 10.413 6.83842 10.4108 6.64456 10.2141C6.45071 10.0174 6.45299 9.70086 6.64965 9.507L7.7196 8.45233L6.66167 7.4095C6.46501 7.21565 6.46273 6.89908 6.65658 6.70241C6.85043 6.50575 7.16701 6.50348 7.36367 6.69733L8.43185 7.75025L9.5543 6.64383C9.75096 6.44998 10.0675 6.45226 10.2614 6.64892Z" />
</svg>
