<svg width="88" height="82" viewBox="0 0 88 82" fill="none" xmlns="http://www.w3.org/2000/svg">
<g filter="url(#filter0_d_10408_11824)">
<path fill-rule="evenodd" clip-rule="evenodd" d="M43.9999 11.334C25.9586 11.334 11.3333 25.9593 11.3333 44.0007C11.3333 62.042 25.9586 76.6673 43.9999 76.6673C62.0412 76.6673 76.6666 62.042 76.6666 44.0007C76.6666 25.9593 62.0412 11.334 43.9999 11.334ZM3.33325 44.0007C3.33325 21.5411 21.5403 3.33398 43.9999 3.33398C66.4595 3.33398 84.6666 21.5411 84.6666 44.0007C84.6666 66.4602 66.4595 84.6673 43.9999 84.6673C21.5403 84.6673 3.33325 66.4602 3.33325 44.0007ZM43.9999 19.834C46.2091 19.834 47.9999 21.6248 47.9999 23.834V47.6673C47.9999 49.8765 46.2091 51.6673 43.9999 51.6673C41.7908 51.6673 39.9999 49.8765 39.9999 47.6673V23.834C39.9999 21.6248 41.7908 19.834 43.9999 19.834ZM43.9999 66.0007C46.5312 66.0007 48.5833 63.9486 48.5833 61.4173C48.5833 58.886 46.5312 56.834 43.9999 56.834C41.4686 56.834 39.4166 58.886 39.4166 61.4173C39.4166 63.9486 41.4686 66.0007 43.9999 66.0007Z" fill="#FA7B2A"/>
</g>
<defs>
<filter id="filter0_d_10408_11824" x="-6.10352e-05" y="0" width="88.595" height="88" filterUnits="userSpaceOnUse" color-interpolation-filters="sRGB">
<feFlood flood-opacity="0" result="BackgroundImageFix"/>
<feColorMatrix in="SourceAlpha" type="matrix" values="0 0 0 0 0 0 0 0 0 0 0 0 0 0 0 0 0 0 127 0" result="hardAlpha"/>
<feOffset dx="0.595041"/>
<feComposite in2="hardAlpha" operator="out"/>
<feColorMatrix type="matrix" values="0 0 0 0 1 0 0 0 0 1 0 0 0 0 1 0 0 0 0.05 0"/>
<feBlend mode="normal" in2="BackgroundImageFix" result="effect1_dropShadow_10408_11824"/>
<feBlend mode="normal" in="SourceGraphic" in2="effect1_dropShadow_10408_11824" result="shape"/>
</filter>
</defs>
</svg>
